#N canvas 0 39 612 701 10;
#X obj 21 3 inlet~;
#X obj 423 4 inlet;
#X obj 19 268 outlet~;
#X obj 301 61 samplerate~;
#X obj 423 98 expr tan(2*acos(0) * $f1 / $f2);
#X obj 423 122 expr ($f1 - 1) / ($f1 + 1);
#X obj 301 36 t b;
#X text 19 -36 Second order allpass filter;
#X obj 80 3 inlet;
#X obj 80 98 expr -cos(4*acos(0) * $f1 / $f2);
#X text 646 98 tan(pi * f_b / f_s);
#X text 175 116 d = -cos(2*pi f_c / f_s);
#X text 613 122 c;
#X obj 80 171 expr $f1 * (1 - $f2);
#X text 231 173 d (1 - c);
#X obj 20 218 fexpr~ $f3 * (-$x[0] + $y[-2]) + $f2 * ($x[-1] - $y[-1])
+ $x[-2];
#X text 123 3 f_c = cutoff frequency (Hz);
#X text 468 5 bandwidth (Hz);
#X obj 443 156 print c;
#X obj 100 139 print d;
#X connect 0 0 15 0;
#X connect 1 0 4 0;
#X connect 1 0 6 0;
#X connect 3 0 4 1;
#X connect 3 0 9 1;
#X connect 4 0 5 0;
#X connect 5 0 13 1;
#X connect 5 0 15 2;
#X connect 5 0 18 0;
#X connect 6 0 3 0;
#X connect 8 0 6 0;
#X connect 8 0 9 0;
#X connect 9 0 13 0;
#X connect 9 0 19 0;
#X connect 13 0 15 1;
#X connect 15 0 2 0;
