#N canvas 0 39 612 701 10;
#X obj 21 17 inlet~;
#X obj 81 17 inlet;
#X obj 19 245 outlet~;
#X text 19 -36 First order allpass filter;
#X obj 295 71 samplerate~;
#X obj 81 97 expr tan(2*acos(0) * $f1 / $f2);
#X text 311 97 tan(pi * f_c / f_s);
#X obj 81 124 expr ($f1 - 1) / ($f1 + 1);
#X obj 295 46 t b;
#X obj 20 213 biquad~;
#X obj 81 178 pack f 0 f 1 0;
#X obj 81 152 * -1;
#X connect 0 0 9 0;
#X connect 1 0 5 0;
#X connect 1 0 8 0;
#X connect 4 0 5 1;
#X connect 5 0 7 0;
#X connect 7 0 11 0;
#X connect 7 0 10 2;
#X connect 8 0 4 0;
#X connect 9 0 2 0;
#X connect 10 0 9 0;
#X connect 11 0 10 0;
