#N canvas 0 39 612 701 10;
#X obj 22 -8 inlet~;
#X obj 77 -8 inlet;
#X obj 21 112 outlet~;
#X obj 21 82 /~ 2;
#X obj 126 -8 inlet;
#X obj 47 22 allpass2~;
#X text 19 -36 Second order bandreject filter;
#X obj 21 51 +~;
#X connect 0 0 5 0;
#X connect 0 0 7 0;
#X connect 1 0 5 1;
#X connect 3 0 2 0;
#X connect 4 0 5 2;
#X connect 5 0 7 1;
#X connect 7 0 3 0;
