#N canvas 0 0 1257 744 10;
#X obj 18 -25 select-input~;
#X obj 16 438 output~;
#X obj 318 407 plots~ 1024;
#X obj 322 -25 plots~ 1024;
#X text 144 103 measure impulse response;
#X obj 17 386 select-output~;
#X obj 146 120 impulse~ 1024;
#X obj 145 364 +~ 0;
#X obj 17 146 select-output~;
#X floatatom 227 232 5 0 0 1 delay_(ms) - -;
#X msg 227 174 1;
#X obj 127 311 +~;
#X msg 273 174 60;
#X obj 146 256 vdelay~ 4410;
#X obj 230 207 hsl 128 15 0 100 0 0 empty empty empty -2 -8 0 10 -262144
-1 -1 7620 1;
#X connect 0 0 3 0;
#X connect 0 0 8 0;
#X connect 5 0 1 0;
#X connect 5 0 1 1;
#X connect 6 0 8 1;
#X connect 7 0 5 1;
#X connect 7 0 2 0;
#X connect 8 0 5 0;
#X connect 8 0 11 0;
#X connect 8 0 13 0;
#X connect 9 0 13 1;
#X connect 10 0 14 0;
#X connect 11 0 7 0;
#X connect 12 0 14 0;
#X connect 13 0 11 1;
#X connect 14 0 9 0;
