#N canvas 0 39 740 701 10;
#X floatatom 299 54 5 0 0 0 - - -;
#X obj 40 29 fexpr~ ($x[0] + $x[-$i2])/2;
#X floatatom 226 11 5 0 0 0 - - -;
#X msg 226 -10 50;
#X obj 39 -242 impulse~ 2048;
#X obj 47 -221 plot~ 4096;
#X obj 39 98 plot~ 4096;
#X text 47 -24 FIR comb filter;
#X obj 260 74 *~ 200;
#X obj 260 98 plotspectrum~ 2048;
#X connect 0 0 8 1;
#X connect 1 0 6 0;
#X connect 1 0 8 0;
#X connect 2 0 1 1;
#X connect 3 0 2 0;
#X connect 4 0 1 0;
#X connect 4 0 5 0;
#X connect 8 0 9 0;
#X coords 0 0 1 1 208 175 0;
