#N canvas 0 0 1257 744 10;
#X obj 18 -25 select-input~;
#X obj 16 297 output~;
#X obj 37 617 vdelay~ 4000;
#X obj 320 192 plots~ 1024;
#X obj 322 -25 plots~ 1024;
#X floatatom 118 553 0 0 0 0 - - -;
#X floatatom 118 595 0 0 0 0 - - -;
#X text 127 617 max delay (ms);
#X obj 118 574 samplestoms;
#X msg 118 529 50;
#X text 184 597 delay (ms);
#X text 178 142 delay (samples);
#X obj 18 647 +~;
#X obj 47 161 fircomb~ 44100;
#X floatatom 142 143 5 0 0 0 - - -;
#X msg 142 122 50;
#X text 157 162 max delay (samples);
#X text 148 555 delay (samples);
#X obj 320 467 plots~ 1024;
#X text 8 499 FIR comb filter (BAD) (vdelay quantizes delay too coarsely)
;
#X obj 319 443 fircomb~ 44100;
#X obj 320 419 impulse~ 1024;
#X text 318 402 measure impulse response;
#X obj 17 245 select-output~;
#X connect 0 0 4 0;
#X connect 0 0 13 0;
#X connect 0 0 23 0;
#X connect 2 0 12 1;
#X connect 5 0 8 0;
#X connect 6 0 2 1;
#X connect 8 0 6 0;
#X connect 9 0 5 0;
#X connect 13 0 23 1;
#X connect 13 0 3 0;
#X connect 14 0 13 1;
#X connect 14 0 20 1;
#X connect 15 0 14 0;
#X connect 20 0 18 0;
#X connect 21 0 20 0;
#X connect 23 0 1 0;
#X connect 23 0 1 1;
