#N canvas 0 0 1257 744 10;
#X obj 18 -25 select-input~;
#X obj 16 438 output~;
#X obj 318 407 plots~ 1024;
#X obj 322 -25 plots~ 1024;
#X text 144 103 measure impulse response;
#X obj 17 386 select-output~;
#X obj 146 120 impulse~ 1024;
#X obj 145 364 +~ 0;
#X obj 17 146 select-output~;
#X obj 145 327 +~;
#X obj 164 296 vdelay~ 4410;
#X msg 263 222 1;
#X msg 301 222 5;
#X floatatom 263 253 5 0 0 1 depth_(ms) - -;
#X obj 243 164 lfo~;
#X obj 245 272 *~;
#X obj 244 200 +~ 1;
#X connect 0 0 3 0;
#X connect 0 0 8 0;
#X connect 5 0 1 0;
#X connect 5 0 1 1;
#X connect 6 0 8 1;
#X connect 7 0 5 1;
#X connect 7 0 2 0;
#X connect 8 0 5 0;
#X connect 8 0 9 0;
#X connect 8 0 10 0;
#X connect 9 0 7 0;
#X connect 10 0 9 1;
#X connect 11 0 13 0;
#X connect 12 0 13 0;
#X connect 13 0 15 1;
#X connect 14 0 16 0;
#X connect 15 0 10 1;
#X connect 16 0 15 0;
