#N canvas 0 39 740 701 10;
#X floatatom 203 161 8 0 0 1 Hz - -;
#X msg 174 76 440;
#X obj 177 144 hsl 112 15 50 15000 1 0 empty empty empty -2 -8 0 10
-262144 -1 -1 4232 1;
#X obj 367 545 outlet~;
#X obj 368 514 +~;
#X obj 334 491 +~;
#X obj 368 491 +~;
#X obj 102 115 vradio 15 1 0 4 empty empty empty 0 -8 0 10 -262144
-1 -1 0;
#X obj 291 337 *~;
#X obj 292 278 *~;
#X msg 253 224 1;
#X msg 253 254 0;
#X obj 291 458 *~;
#X obj 292 397 *~;
#X msg 253 283 1;
#X msg 253 313 0;
#X msg 253 343 1;
#X msg 253 373 0;
#X msg 253 405 1;
#X msg 253 435 0;
#X obj 102 38 loadbang;
#X text 117 115 sin;
#X obj 102 195 route 0 1 2 3;
#X obj 311 237 osc~;
#X obj 369 249 phasor~;
#X obj 330 286 *~ 2;
#X obj 330 311 -~ 1;
#X text 117 130 sawtooth;
#X text 117 145 square;
#X obj 368 339 expr~ 2 * (($v1 > 0.5) - 0.5);
#X obj 368 398 fexpr~ if($x[0] == 1 && $x[-1] == -1 \, 1 \, 0);
#X text 118 159 pulse;
#X connect 0 0 23 0;
#X connect 0 0 24 0;
#X connect 1 0 2 0;
#X connect 2 0 0 0;
#X connect 4 0 3 0;
#X connect 5 0 4 0;
#X connect 6 0 4 1;
#X connect 7 0 22 0;
#X connect 8 0 6 0;
#X connect 9 0 6 1;
#X connect 10 0 9 0;
#X connect 11 0 9 0;
#X connect 12 0 5 0;
#X connect 13 0 5 1;
#X connect 14 0 8 0;
#X connect 15 0 8 0;
#X connect 16 0 13 0;
#X connect 17 0 13 0;
#X connect 18 0 12 0;
#X connect 19 0 12 0;
#X connect 20 0 7 0;
#X connect 20 0 1 0;
#X connect 22 0 10 0;
#X connect 22 0 15 0;
#X connect 22 0 17 0;
#X connect 22 0 19 0;
#X connect 22 1 11 0;
#X connect 22 1 14 0;
#X connect 22 1 17 0;
#X connect 22 1 19 0;
#X connect 22 2 11 0;
#X connect 22 2 15 0;
#X connect 22 2 16 0;
#X connect 22 2 19 0;
#X connect 22 3 11 0;
#X connect 22 3 15 0;
#X connect 22 3 17 0;
#X connect 22 3 18 0;
#X connect 22 4 11 0;
#X connect 22 4 15 0;
#X connect 22 4 17 0;
#X connect 22 4 19 0;
#X connect 23 0 9 1;
#X connect 24 0 25 0;
#X connect 24 0 29 0;
#X connect 25 0 26 0;
#X connect 26 0 8 1;
#X connect 29 0 13 1;
#X connect 29 0 30 0;
#X connect 30 0 12 1;
#X coords 0 -1 1 1 193 77 1 100 100;
