#N canvas 0 39 740 701 10;
#X obj 18 -25 select-input~;
#X obj 16 448 output~;
#X obj 320 192 plots~ 1024;
#X obj 322 -25 plots~ 1024;
#X text 319 402 measure impulse response;
#X obj 17 396 select-output~;
#X obj 321 419 impulse~ 1024;
#X obj 320 467 plots~ 1024;
#X obj 320 443 iircomb~ 441;
#X obj 122 183 hsl 128 15 -0.999 0.999 0 0 empty empty empty -2 -8
0 10 -262144 -1 -1 12071 1;
#X obj 119 126 loadbang;
#X obj 163 227 hsl 128 15 0 100 0 0 empty empty empty -2 -8 0 10 -262144
-1 -1 750 1;
#X floatatom 119 199 5 0 0 1 gain - -;
#X floatatom 160 243 5 0 0 1 delay_(samples) - -;
#X obj 79 266 iircomb~ 441;
#X msg 119 155 0.9;
#X msg 160 155 50;
#X obj 145 378 +~ 0;
#X text 168 267 max delay (samples);
#X connect 0 0 3 0;
#X connect 0 0 5 0;
#X connect 0 0 14 0;
#X connect 5 0 1 0;
#X connect 5 0 1 1;
#X connect 6 0 8 0;
#X connect 8 0 7 0;
#X connect 9 0 12 0;
#X connect 10 0 15 0;
#X connect 10 0 16 0;
#X connect 11 0 13 0;
#X connect 12 0 14 1;
#X connect 12 0 8 1;
#X connect 13 0 14 2;
#X connect 13 0 8 2;
#X connect 14 0 17 0;
#X connect 15 0 9 0;
#X connect 16 0 11 0;
#X connect 17 0 5 1;
#X connect 17 0 2 0;
