#N canvas 0 39 612 701 10;
#X obj 23 -2 inlet~;
#X obj 22 473 *~;
#X obj 22 500 +~;
#X obj 21 527 outlet~;
#X obj 37 63 loadbang;
#X obj 439 399 r \$0-depth;
#X obj 134 449 *~;
#X obj 40 449 expr 1 - $f1;
#X obj 296 399 r \$0-center-freq;
#X obj 421 448 *~;
#X obj 403 472 +~;
#X obj 23 327 +~ 0;
#X floatatom 174 160 5 0 0 1 - - #0-bandwidth;
#X obj 108 160 hsl 64 14 5 2000 0 0 empty empty bandwidth -2 -8 0 10
-262144 -1 -1 1563 1;
#X floatatom 174 193 5 0 0 1 Hz - #0-depth;
#X obj 108 193 hsl 64 14 1 2000 0 0 empty empty sweep_depth -2 -8 0
10 -262144 -1 -1 1573 1;
#X floatatom 174 130 5 0 0 1 Hz - #0-center-freq;
#X obj 108 130 hsl 64 14 20 3000 0 0 empty empty center_freq -2 -8
0 10 -262144 -1 -1 2072 1;
#X obj 40 395 r \$0-mix;
#X obj 402 503 snapshot~;
#X msg 62 103 1000;
#X msg 62 161 500;
#X obj 467 424 loadbang;
#X msg 467 448 1;
#X obj 467 472 metro 1;
#X obj 402 529 s \$0-curr-center-freq;
#X obj 229 78 *~ 5;
#X obj 230 16 impulse~ 1024;
#X obj 230 110 plotpowspec~ 1024;
#X msg 62 129 500;
#X text 17 -27 Phaser;
#X obj 102 244 lfo~;
#N canvas 0 39 612 701 phaser-filters 0;
#X obj 280 26 r \$0-curr-center-freq;
#X obj 431 96 r \$0-bandwidth;
#X obj 14 8 inlet~;
#X obj 208 345 outlet~;
#X obj 209 257 brf~;
#X obj 208 305 brf~;
#X obj 210 206 brf~;
#X obj 280 75 * 2;
#X obj 322 75 * 2;
#X obj 363 75 * 2;
#X obj 210 156 brf~;
#X connect 0 0 7 0;
#X connect 0 0 10 1;
#X connect 1 0 6 2;
#X connect 1 0 4 2;
#X connect 1 0 5 2;
#X connect 1 0 10 2;
#X connect 2 0 10 0;
#X connect 4 0 5 0;
#X connect 5 0 3 0;
#X connect 6 0 4 0;
#X connect 7 0 6 1;
#X connect 7 0 8 0;
#X connect 8 0 4 1;
#X connect 8 0 9 0;
#X connect 9 0 5 1;
#X connect 10 0 6 0;
#X restore 135 408 pd phaser-filters;
#X msg 60 226 1;
#X obj 421 371 snapshot~;
#X obj 421 344 metro 1;
#X obj 421 317 loadbang;
#X text 291 360 compute current center frequency;
#X floatatom 174 226 5 0 0 1 - - #0-mix;
#X obj 108 226 hsl 64 14 0 1 0 0 empty empty mix -2 -8 0 10 -262144
-1 -1 3150 1;
#X msg 60 193 0.5;
#N canvas 0 39 612 701 phaser-filters 0;
#X obj 280 26 r \$0-curr-center-freq;
#X obj 431 96 r \$0-bandwidth;
#X obj 14 8 inlet~;
#X obj 208 345 outlet~;
#X obj 209 257 brf~;
#X obj 208 305 brf~;
#X obj 210 206 brf~;
#X obj 280 75 * 2;
#X obj 322 75 * 2;
#X obj 363 75 * 2;
#X obj 210 156 brf~;
#X connect 0 0 7 0;
#X connect 0 0 10 1;
#X connect 1 0 6 2;
#X connect 1 0 4 2;
#X connect 1 0 5 2;
#X connect 1 0 10 2;
#X connect 2 0 10 0;
#X connect 4 0 5 0;
#X connect 5 0 3 0;
#X connect 6 0 4 0;
#X connect 7 0 6 1;
#X connect 7 0 8 0;
#X connect 8 0 4 1;
#X connect 8 0 9 0;
#X connect 9 0 5 1;
#X connect 10 0 6 0;
#X restore 230 47 pd phaser-filters;
#X connect 0 0 11 0;
#X connect 1 0 2 0;
#X connect 2 0 3 0;
#X connect 4 0 20 0;
#X connect 4 0 21 0;
#X connect 4 0 29 0;
#X connect 4 0 33 0;
#X connect 4 0 40 0;
#X connect 5 0 9 1;
#X connect 6 0 2 1;
#X connect 7 0 1 1;
#X connect 8 0 10 0;
#X connect 9 0 10 1;
#X connect 10 0 19 0;
#X connect 11 0 1 0;
#X connect 11 0 32 0;
#X connect 13 0 12 0;
#X connect 15 0 14 0;
#X connect 17 0 16 0;
#X connect 18 0 7 0;
#X connect 18 0 6 1;
#X connect 19 0 25 0;
#X connect 20 0 17 0;
#X connect 21 0 15 0;
#X connect 22 0 23 0;
#X connect 23 0 24 0;
#X connect 24 0 19 0;
#X connect 26 0 28 0;
#X connect 27 0 41 0;
#X connect 29 0 13 0;
#X connect 31 0 34 0;
#X connect 32 0 6 0;
#X connect 33 0 31 0;
#X connect 34 0 9 0;
#X connect 35 0 34 0;
#X connect 36 0 35 0;
#X connect 39 0 38 0;
#X connect 40 0 39 0;
#X connect 41 0 26 0;
#X coords 0 -1 1 1 330 205 1 100 100;
