#N canvas 0 0 1257 744 10;
#X obj 23 -2 inlet~;
#X obj 22 538 outlet~;
#X obj 37 63 loadbang;
#X obj 439 399 r \$0-depth;
#X obj 296 399 r \$0-center-freq;
#X obj 421 448 *~;
#X obj 403 472 +~;
#X floatatom 174 158 5 0 0 1 - - #0-bandwidth;
#X obj 108 158 hsl 64 14 5 2000 0 0 empty empty bandwidth -2 -8 0 10
-262144 -1 -1 1563 1;
#X floatatom 174 191 5 0 0 1 Hz - #0-depth;
#X obj 108 191 hsl 64 14 1 2000 0 0 empty empty sweep_depth -2 -8 0
10 -262144 -1 -1 1573 1;
#X floatatom 174 128 5 0 0 1 Hz - #0-center-freq;
#X obj 108 128 hsl 64 14 20 3000 0 0 empty empty center_freq -2 -8
0 10 -262144 -1 -1 2072 1;
#X obj 402 503 snapshot~;
#X msg 62 100 1000;
#X msg 62 158 500;
#X obj 467 424 loadbang;
#X msg 467 448 1;
#X obj 467 472 metro 1;
#X obj 402 529 s \$0-curr-center-freq;
#X obj 229 78 *~ 5;
#X obj 230 16 impulse~ 1024;
#X obj 230 110 plotpowspec~ 1024;
#X msg 62 126 500;
#X text 17 -27 Phaser;
#X obj 102 272 lfo~;
#X msg 60 249 1;
#X obj 421 371 snapshot~;
#X obj 421 344 metro 1;
#X obj 421 317 loadbang;
#X floatatom 174 224 5 0 0 1 - - #0-direct-gain;
#X obj 108 224 hsl 64 14 0 1 0 0 empty empty direct_gain -2 -8 0 10
-262144 -1 -1 6300 1;
#X floatatom 174 255 5 0 0 1 - - #0-notch-gain;
#X obj 108 255 hsl 64 14 0 1 0 0 empty empty notch_gain -2 -8 0 10
-262144 -1 -1 3150 1;
#X msg 62 220 0.5;
#N canvas 0 41 612 699 phaser-filters 0;
#X obj 236 49 r \$0-curr-center-freq;
#X obj 355 120 r \$0-bandwidth;
#X obj 14 8 inlet~;
#X obj 14 480 outlet~;
#X obj 165 280 brf~;
#X obj 164 328 brf~;
#X obj 166 229 brf~;
#X obj 236 98 * 2;
#X obj 278 98 * 2;
#X obj 319 98 * 2;
#X obj 166 179 brf~;
#X obj 15 407 *~;
#X obj 15 445 +~;
#X obj 163 402 *~;
#X obj 33 376 r \$0-direct-gain;
#X obj 181 376 r \$0-notch-gain;
#X connect 0 0 7 0;
#X connect 0 0 10 1;
#X connect 1 0 6 2;
#X connect 1 0 4 2;
#X connect 1 0 5 2;
#X connect 1 0 10 2;
#X connect 2 0 11 0;
#X connect 2 0 10 0;
#X connect 4 0 5 0;
#X connect 5 0 13 0;
#X connect 6 0 4 0;
#X connect 7 0 6 1;
#X connect 7 0 8 0;
#X connect 8 0 4 1;
#X connect 8 0 9 0;
#X connect 9 0 5 1;
#X connect 10 0 6 0;
#X connect 11 0 12 0;
#X connect 12 0 3 0;
#X connect 13 0 12 1;
#X connect 14 0 11 1;
#X connect 15 0 13 1;
#X restore 23 473 pd phaser-filters;
#X text 289 366 compute current center frequency;
#N canvas 0 41 612 699 phaser-filters 0;
#X obj 236 49 r \$0-curr-center-freq;
#X obj 355 120 r \$0-bandwidth;
#X obj 14 8 inlet~;
#X obj 14 480 outlet~;
#X obj 165 280 brf~;
#X obj 164 328 brf~;
#X obj 166 229 brf~;
#X obj 236 98 * 2;
#X obj 278 98 * 2;
#X obj 319 98 * 2;
#X obj 166 179 brf~;
#X obj 15 407 *~;
#X obj 15 445 +~;
#X obj 163 402 *~;
#X obj 33 376 r \$0-direct-gain;
#X obj 181 376 r \$0-notch-gain;
#X connect 0 0 7 0;
#X connect 0 0 10 1;
#X connect 1 0 6 2;
#X connect 1 0 4 2;
#X connect 1 0 5 2;
#X connect 1 0 10 2;
#X connect 2 0 11 0;
#X connect 2 0 10 0;
#X connect 4 0 5 0;
#X connect 5 0 13 0;
#X connect 6 0 4 0;
#X connect 7 0 6 1;
#X connect 7 0 8 0;
#X connect 8 0 4 1;
#X connect 8 0 9 0;
#X connect 9 0 5 1;
#X connect 10 0 6 0;
#X connect 11 0 12 0;
#X connect 12 0 3 0;
#X connect 13 0 12 1;
#X connect 14 0 11 1;
#X connect 15 0 13 1;
#X restore 229 48 pd phaser-filters;
#X msg 62 189 1;
#X connect 0 0 35 0;
#X connect 2 0 14 0;
#X connect 2 0 15 0;
#X connect 2 0 23 0;
#X connect 2 0 26 0;
#X connect 2 0 38 0;
#X connect 2 0 34 0;
#X connect 3 0 5 1;
#X connect 4 0 6 0;
#X connect 5 0 6 1;
#X connect 6 0 13 0;
#X connect 8 0 7 0;
#X connect 10 0 9 0;
#X connect 12 0 11 0;
#X connect 13 0 19 0;
#X connect 14 0 12 0;
#X connect 15 0 10 0;
#X connect 16 0 17 0;
#X connect 17 0 18 0;
#X connect 18 0 13 0;
#X connect 20 0 22 0;
#X connect 21 0 37 0;
#X connect 23 0 8 0;
#X connect 25 0 27 0;
#X connect 26 0 25 0;
#X connect 27 0 5 0;
#X connect 28 0 27 0;
#X connect 29 0 28 0;
#X connect 31 0 30 0;
#X connect 33 0 32 0;
#X connect 34 0 33 0;
#X connect 35 0 1 0;
#X connect 37 0 20 0;
#X connect 38 0 31 0;
#X coords 0 -1 1 1 330 205 1 100 100;
