#N canvas 0 39 740 701 10;
#X obj 47 -50 powspec~;
#X obj 48 -24 sqrt~;
#X obj 46 -83 inlet~;
#X obj 234 1 /~ 1.5708;
#X obj 597 -7 s \$0-blocksize;
#X obj 532 -65 \$1;
#X obj 532 -37 expr if($i1 > 0 \, $i1 \, 1024);
#X msg 532 -7 set \$1;
#X obj 532 18 block~;
#X obj 66 -2 r \$0-blocksize;
#X obj 48 22 /~;
#X text 18 -154 Plot the magnitude and phase spectra of input signal.
Optional creation argument specifies FFT length (defaults to 1024).
;
#X text 530 -114 Set the FFT block size.;
#X text 44 -106 Compute spectra.;
#X text 257 -18 pi / 2;
#X obj 532 -93 loadbang;
#X obj 555 55 / 2;
#X obj 484 -93 inlet;
#N canvas 0 0 450 300 (subpatch) 0;
#X array \$0-phase 512 float 2;
#X coords 0 1 512 -1 200 140 1;
#X restore 307 132 graph;
#N canvas 0 39 740 701 (subpatch) 0;
#X array \$0-magnitude 512 float 0;
#X coords 0 1 511 -1 200 140 1;
#X restore 103 132 graph;
#X msg 555 79 resize \$1;
#X obj 555 125 s \$0-phase;
#X obj 569 102 s \$0-magnitude;
#X obj 47 70 tabsend~ \$0-magnitude;
#X obj 233 70 tabsend~ \$0-phase;
#X floatatom 266 116 5 0 0 0 yscale - #0-magnitude-scale;
#X obj 47 48 *~;
#X obj 423 56 loadbang;
#X msg 423 78 1;
#X obj 78 25 r \$0-magnitude-scale;
#X floatatom 470 116 5 0 0 0 yscale - #0-phase-scale;
#X obj 233 48 *~;
#X obj 251 25 r \$0-phase-scale;
#X connect 0 0 1 0;
#X connect 0 1 3 0;
#X connect 1 0 10 0;
#X connect 2 0 0 0;
#X connect 3 0 31 0;
#X connect 5 0 6 0;
#X connect 6 0 4 0;
#X connect 6 0 7 0;
#X connect 6 0 16 0;
#X connect 7 0 8 0;
#X connect 9 0 10 1;
#X connect 10 0 26 0;
#X connect 15 0 5 0;
#X connect 16 0 20 0;
#X connect 17 0 6 0;
#X connect 20 0 21 0;
#X connect 20 0 22 0;
#X connect 26 0 23 0;
#X connect 27 0 28 0;
#X connect 28 0 25 0;
#X connect 28 0 30 0;
#X connect 29 0 26 1;
#X connect 31 0 24 0;
#X connect 32 0 31 1;
#X coords 0 -1 1 1 410 175 1 100 100;
