#N canvas 0 39 740 701 10;
#X obj 93 42 rfft~;
#X obj 98 103 +~;
#X obj 83 77 *~;
#X obj 116 77 *~;
#X obj 93 12 inlet~;
#X obj 98 132 outlet~;
#X obj 164 78 /~;
#X obj 164 132 outlet~;
#X obj 163 104 expr~ atan($v1);
#X connect 0 0 2 0;
#X connect 0 0 2 1;
#X connect 0 0 6 1;
#X connect 0 1 3 0;
#X connect 0 1 3 1;
#X connect 0 1 6 0;
#X connect 1 0 5 0;
#X connect 2 0 1 0;
#X connect 3 0 1 1;
#X connect 4 0 0 0;
#X connect 6 0 8 0;
#X connect 8 0 7 0;
