#N canvas 0 39 740 701 12;
#X msg 82 70 open \$1;
#X obj 82 104 readsf~;
#X msg 32 71 1;
#X obj 82 135 outlet~;
#X obj 32 24 inlet;
#X text 86 25 filename (probably needs to be "symbol filename");
#X connect 0 0 1 0;
#X connect 1 0 3 0;
#X connect 2 0 1 0;
#X connect 4 0 0 0;
#X connect 4 0 2 0;
