#N canvas 0 39 612 701 10;
#X obj 68 153 schroederallpass~;
#X floatatom 117 123 5 0 0 0 - - -;
#X obj 68 40 inlet~;
#X obj 241 40 inlet;
#X text 77 23 x;
#X text 242 23 g;
#X msg 117 93 4410;
#X obj 117 64 loadbang;
#X obj 68 245 schroederallpass~;
#X obj 67 336 schroederallpass~;
#X obj 116 195 expr $f1 / 3;
#X obj 115 294 expr $f1 / 3;
#X obj 66 375 outlet~;
#X connect 0 0 8 0;
#X connect 1 0 0 1;
#X connect 1 0 10 0;
#X connect 2 0 0 0;
#X connect 3 0 0 2;
#X connect 3 0 8 2;
#X connect 3 0 9 2;
#X connect 6 0 1 0;
#X connect 7 0 6 0;
#X connect 8 0 9 0;
#X connect 9 0 12 0;
#X connect 10 0 8 1;
#X connect 10 0 11 0;
#X connect 11 0 9 1;
