#N canvas 0 39 740 701 10;
#X obj 311 73 inlet~;
#X obj 367 73 inlet~;
#X obj 204 103 hradio 15 1 0 2 empty empty empty 0 -8 0 10 -262144
-1 -1 0;
#X obj 204 129 route 0 1;
#X msg 263 172 1;
#X msg 263 196 0;
#X obj 292 220 *~;
#X obj 204 73 loadbang;
#X msg 263 246 1;
#X msg 263 270 0;
#X obj 292 294 *~;
#X obj 334 332 +~;
#X obj 335 360 outlet~;
#X connect 0 0 6 1;
#X connect 1 0 10 1;
#X connect 2 0 3 0;
#X connect 3 0 4 0;
#X connect 3 0 9 0;
#X connect 3 1 5 0;
#X connect 3 1 8 0;
#X connect 4 0 6 0;
#X connect 5 0 6 0;
#X connect 6 0 11 1;
#X connect 7 0 2 0;
#X connect 8 0 10 0;
#X connect 9 0 10 0;
#X connect 10 0 11 0;
#X connect 11 0 12 0;
#X coords 0 -1 1 1 135 19 1 100 100;
