#N canvas 0 39 740 701 10;
#X obj 338 428 read_wav~;
#X obj 562 658 *~;
#X obj 561 680 outlet~;
#X obj 551 636 +~;
#X obj 517 613 +~;
#X obj 320 489 adc~;
#X obj 551 613 +~;
#X obj 158 155 bng 15 250 50 0 empty empty open 17 7 0 10 -262144 -1
-1;
#X obj 338 274 openpanel;
#X obj 109 124 vradio 15 1 0 5 empty empty empty 0 -8 0 10 -262144
-1 -1 0;
#X text 128 169 adc;
#X obj 316 213 vradio 15 1 0 2 empty empty dsp 0 -8 0 10 -262144 -1
-1 0;
#X obj 428 305 route 0 1;
#X text 333 212 on;
#X text 333 228 off;
#X floatatom 249 221 5 0 0 1 dB - -;
#X obj 303 392 *~;
#X obj 304 333 *~;
#X msg 265 279 1;
#X msg 265 309 0;
#X obj 323 309 noise~;
#X obj 303 513 *~;
#X obj 304 452 *~;
#X msg 265 338 1;
#X msg 265 368 0;
#X msg 265 398 1;
#X msg 265 428 0;
#X msg 265 460 1;
#X msg 265 490 0;
#X msg 428 332 \; pd dsp 1;
#X msg 499 332 \; pd dsp 0;
#X obj 249 61 rmstodb;
#X obj 109 43 loadbang;
#X obj 316 68 loadbang;
#X obj 112 220 hsl 128 15 0 2 0 1 \$0-rms empty level -2 -8 0 10 -262144
-1 -1 0 1;
#X obj 249 38 r \$0-rms;
#X obj 580 592 dbtorms;
#X obj 109 250 route 0 1 2 3 4;
#X text 127 184 impulse;
#X obj 303 577 *~;
#X msg 265 524 1;
#X msg 265 554 0;
#X obj 321 547 impulse~ 2048;
#X obj 470 600 +~;
#X floatatom 182 187 5 0 0 0 - - -;
#X msg 182 73 1024;
#X obj 212 106 function-generator~;
#X text 128 139 func;
#X text 129 124 noise;
#X text 128 154 wav;
#X connect 0 0 22 1;
#X connect 1 0 2 0;
#X connect 3 0 1 0;
#X connect 4 0 3 0;
#X connect 5 0 21 1;
#X connect 6 0 3 1;
#X connect 7 0 8 0;
#X connect 8 0 0 0;
#X connect 9 0 37 0;
#X connect 11 0 12 0;
#X connect 12 0 29 0;
#X connect 12 1 30 0;
#X connect 15 0 36 0;
#X connect 16 0 6 0;
#X connect 17 0 6 1;
#X connect 18 0 17 0;
#X connect 19 0 17 0;
#X connect 20 0 17 1;
#X connect 21 0 43 1;
#X connect 22 0 4 1;
#X connect 23 0 16 0;
#X connect 24 0 16 0;
#X connect 25 0 22 0;
#X connect 26 0 22 0;
#X connect 27 0 21 0;
#X connect 28 0 21 0;
#X connect 31 0 15 0;
#X connect 32 0 9 0;
#X connect 32 0 45 0;
#X connect 33 0 11 0;
#X connect 35 0 31 0;
#X connect 36 0 1 1;
#X connect 37 0 18 0;
#X connect 37 0 24 0;
#X connect 37 0 26 0;
#X connect 37 0 28 0;
#X connect 37 0 41 0;
#X connect 37 1 19 0;
#X connect 37 1 23 0;
#X connect 37 1 26 0;
#X connect 37 1 28 0;
#X connect 37 1 41 0;
#X connect 37 2 19 0;
#X connect 37 2 24 0;
#X connect 37 2 25 0;
#X connect 37 2 28 0;
#X connect 37 2 41 0;
#X connect 37 3 19 0;
#X connect 37 3 24 0;
#X connect 37 3 26 0;
#X connect 37 3 27 0;
#X connect 37 3 41 0;
#X connect 37 4 40 0;
#X connect 37 4 19 0;
#X connect 37 4 24 0;
#X connect 37 4 26 0;
#X connect 37 4 28 0;
#X connect 39 0 43 0;
#X connect 40 0 39 0;
#X connect 41 0 39 0;
#X connect 42 0 39 1;
#X connect 43 0 4 0;
#X connect 44 0 42 0;
#X connect 45 0 44 0;
#X connect 46 0 16 1;
#X coords 0 -1 1 1 307 145 1 100 100;
