#N canvas 0 39 612 701 10;
#X obj 21 81 mtof;
#X obj 21 50 notein;
#X obj 22 342 output~;
#X floatatom 35 105 5 0 0 0 - - -;
#X text 18 22 Super simple midi synthesizer;
#X obj 81 182 line~;
#X msg 92 156 0 1000;
#X obj 81 79 t b;
#X obj 21 294 *~;
#X obj 123 331 plot~ 22050;
#X msg 81 105 1;
#X obj 92 130 t b;
#X text 118 92 The simplest of all envelopes;
#X obj 21 206 function-generator~;
#X connect 0 0 3 0;
#X connect 0 0 13 0;
#X connect 1 0 0 0;
#X connect 1 0 7 0;
#X connect 5 0 8 1;
#X connect 6 0 5 0;
#X connect 7 0 10 0;
#X connect 8 0 2 0;
#X connect 8 0 9 0;
#X connect 10 0 5 0;
#X connect 10 0 11 0;
#X connect 11 0 6 0;
#X connect 13 0 8 0;
