#N canvas 389 22 1257 744 10;
#X obj 16 438 output~;
#X obj 318 407 plots~ 1024;
#X obj 322 -25 plots~ 1024;
#X text 144 103 measure impulse response;
#X obj 17 386 select-output~;
#X obj 146 120 impulse~ 1024;
#X obj 145 364 +~ 0;
#X obj 17 146 select-output~;
#X obj 105 275 schroederallpass~;
#X msg 214 213 0.7;
#X floatatom 215 245 5 0 0 0 - - -;
#X floatatom 146 245 5 0 0 0 - - -;
#X msg 146 215 40;
#X obj 18 -25 select-input~;
#X connect 4 0 0 0;
#X connect 4 0 0 1;
#X connect 5 0 7 1;
#X connect 6 0 4 1;
#X connect 6 0 1 0;
#X connect 7 0 4 0;
#X connect 7 0 8 0;
#X connect 8 0 6 0;
#X connect 9 0 10 0;
#X connect 10 0 8 2;
#X connect 11 0 8 1;
#X connect 12 0 11 0;
#X connect 13 0 2 0;
#X connect 13 0 7 0;
