#N canvas 0 39 740 701 10;
#X obj 18 -25 select-input~;
#X obj 16 438 output~;
#X obj 37 617 vdelay~ 4000;
#X obj 320 192 plots~ 1024;
#X obj 322 -25 plots~ 1024;
#X floatatom 118 553 0 0 0 0 - - -;
#X floatatom 118 595 0 0 0 0 - - -;
#X text 127 617 max delay (ms);
#X obj 118 574 samplestoms;
#X msg 118 529 50;
#X text 184 597 delay (ms);
#X obj 18 647 +~;
#X text 169 253 max delay (samples);
#X text 148 555 delay (samples);
#X text 8 499 FIR comb filter (BAD) (vdelay quantizes delay too coarsely)
;
#X text 318 402 measure impulse response;
#X obj 17 386 select-output~;
#X obj 320 419 impulse~ 1024;
#X obj 320 467 plots~ 1024;
#X obj 319 443 fircomb~ 441;
#X obj 122 169 hsl 128 15 -0.999 0.999 0 0 empty empty empty -2 -8
0 10 -262144 -1 -1 12071 1;
#X obj 119 112 loadbang;
#X obj 163 213 hsl 128 15 0 100 0 0 empty empty empty -2 -8 0 10 -262144
-1 -1 1675 1;
#X floatatom 119 185 5 0 0 1 gain - -;
#X floatatom 160 229 5 0 0 1 delay_(samples) - -;
#X msg 119 141 0.9;
#X msg 160 141 50;
#X obj 145 364 +~ 0;
#X obj 79 252 fircomb~ 441;
#X connect 0 0 4 0;
#X connect 0 0 16 0;
#X connect 0 0 28 0;
#X connect 2 0 11 1;
#X connect 5 0 8 0;
#X connect 6 0 2 1;
#X connect 8 0 6 0;
#X connect 9 0 5 0;
#X connect 16 0 1 0;
#X connect 16 0 1 1;
#X connect 17 0 19 0;
#X connect 19 0 18 0;
#X connect 20 0 23 0;
#X connect 21 0 25 0;
#X connect 21 0 26 0;
#X connect 22 0 24 0;
#X connect 23 0 28 1;
#X connect 23 0 19 1;
#X connect 24 0 28 2;
#X connect 24 0 19 2;
#X connect 25 0 20 0;
#X connect 26 0 22 0;
#X connect 27 0 16 1;
#X connect 27 0 3 0;
#X connect 28 0 27 0;
