#N canvas 0 39 612 701 10;
#X obj 18 -25 select-input~;
#X obj 16 448 output~;
#X obj 320 192 plots~ 1024;
#X obj 322 -25 plots~ 1024;
#X text 319 402 measure impulse response;
#X obj 17 396 select-output~;
#X obj 321 419 impulse~ 1024;
#X obj 320 467 plots~ 1024;
#X obj 92 183 hsl 128 15 1 22049 0 0 empty empty empty -2 -8 0 10 -262144
-1 -1 0 1;
#X obj 89 126 loadbang;
#X floatatom 89 199 7 0 22050 1 cutoff_freq_(Hz) - -;
#X obj 145 378 +~ 0;
#X msg 89 155 440;
#X obj 152 222 hsl 128 15 1 20000 0 0 empty empty empty -2 -8 0 10
-262144 -1 -1 2400 1;
#X floatatom 149 238 7 0 22050 1 bandwidth_(Hz) - -;
#X msg 149 155 100;
#X obj 89 284 bpf~;
#X obj 321 443 bpf~;
#X connect 0 0 3 0;
#X connect 0 0 5 0;
#X connect 0 0 16 0;
#X connect 5 0 1 0;
#X connect 5 0 1 1;
#X connect 6 0 17 0;
#X connect 8 0 10 0;
#X connect 9 0 12 0;
#X connect 9 0 15 0;
#X connect 10 0 16 1;
#X connect 10 0 17 1;
#X connect 11 0 5 1;
#X connect 11 0 2 0;
#X connect 12 0 8 0;
#X connect 13 0 14 0;
#X connect 14 0 16 2;
#X connect 14 0 17 2;
#X connect 15 0 13 0;
#X connect 16 0 11 0;
#X connect 17 0 7 0;
