#N canvas 0 39 740 701 10;
#X obj 88 121 plotsignal~;
#X obj 370 116 plotsignal~;
#X floatatom 156 15 5 0 0 0 - - -;
#X msg 19 28 bang;
#X msg 66 28 set 512;
#X obj 372 85 impulse~ 128;
#X obj 91 75 impulse~;
#X msg 354 7 512;
#X msg 381 33 128;
#X obj 32 346 plot~ 512;
#X obj 364 379 impulse~ 512;
#X obj 374 446 *~;
#X obj 362 527 output~;
#X obj 467 485 plot~ 44100;
#X floatatom 396 422 5 0 0 0 - - -;
#X msg 329 324 64;
#X msg 377 320 2048;
#X connect 5 0 1 0;
#X connect 6 0 0 0;
#X connect 6 0 9 0;
#X connect 7 0 5 0;
#X connect 8 0 5 0;
#X connect 10 0 11 0;
#X connect 11 0 12 0;
#X connect 11 0 13 0;
#X connect 14 0 11 1;
#X connect 15 0 10 0;
#X connect 16 0 10 0;
