#N canvas 0 39 740 701 10;
#X obj 26 12 select-input~;
#X obj 26 575 output~;
#X obj 27 481 +~;
#X obj 46 302 vdelay~ 1000;
#X obj 92 223 osc~ 1;
#X obj 91 255 *~ 10;
#X msg 389 103 4096;
#X obj 152 522 plot~;
#X obj 153 341 plot~;
#X obj 154 155 plot~;
#X connect 0 0 2 0;
#X connect 0 0 3 0;
#X connect 0 0 9 0;
#X connect 2 0 1 0;
#X connect 2 0 7 0;
#X connect 3 0 2 1;
#X connect 3 0 8 0;
#X connect 4 0 5 0;
#X connect 5 0 3 1;
#X connect 6 0 7 1;
#X connect 6 0 8 1;
#X connect 6 0 9 1;
