#N canvas 0 0 1257 744 10;
#X obj 18 -25 select-input~;
#X obj 16 448 output~;
#X obj 189 382 plots~ 1024;
#X obj 190 144 plots~ 1024;
#X obj 17 396 select-output~;
#X obj 54 152 wahwah~;
#X connect 0 0 3 0;
#X connect 0 0 4 0;
#X connect 0 0 5 0;
#X connect 4 0 1 0;
#X connect 4 0 1 1;
#X connect 5 0 4 1;
#X connect 5 0 2 0;
