#N canvas 0 39 740 701 10;
#X obj 26 12 select-input~;
#X obj 154 155 plotsignal~;
#X obj 153 342 plotsignal~;
#X obj 26 575 output~;
#X obj 27 481 +~;
#X obj 153 521 plotsignal~;
#X obj 46 302 vdelay~ 1000;
#X obj 92 223 osc~ 1;
#X obj 91 255 *~ 10;
#X connect 0 0 1 0;
#X connect 0 0 4 0;
#X connect 0 0 6 0;
#X connect 4 0 3 0;
#X connect 4 0 5 0;
#X connect 6 0 2 0;
#X connect 6 0 4 1;
#X connect 7 0 8 0;
#X connect 8 0 6 1;
