#N canvas 0 39 612 701 10;
#X obj 16 438 output~;
#X obj 322 -25 plots~ 1024;
#X text 144 103 measure impulse response;
#X obj 17 386 select-output~;
#X obj 145 364 +~ 0;
#X obj 17 146 select-output~;
#X msg 197 214 0.7;
#X floatatom 198 246 5 0 0 0 - - -;
#X obj 18 -25 select-input~;
#X obj 146 120 impulse~ 44100;
#X obj 318 407 plots~ 44100;
#X obj 105 275 schroederreverb~;
#X connect 3 0 0 0;
#X connect 3 0 0 1;
#X connect 4 0 3 1;
#X connect 4 0 10 0;
#X connect 5 0 3 0;
#X connect 5 0 11 0;
#X connect 6 0 7 0;
#X connect 7 0 11 1;
#X connect 8 0 1 0;
#X connect 8 0 5 0;
#X connect 9 0 5 1;
#X connect 11 0 4 0;
