#N canvas 0 39 740 701 10;
#X obj 50 35 inlet~;
#X obj 224 91 outlet~;
#X obj 50 63 delwrite~ \$0-delay \$1;
#X obj 224 63 vd~ \$0-delay;
#X obj 224 35 inlet~;
#X connect 0 0 2 0;
#X connect 3 0 1 0;
#X connect 4 0 3 0;
