#N canvas 0 39 612 701 10;
#X text 17 -16 Wah Wah;
#X obj 180 474 bp~;
#X obj 23 16 inlet~;
#X obj 22 506 *~;
#X obj 22 533 +~;
#X obj 21 560 outlet~;
#X obj 36 52 loadbang;
#X obj 313 300 r \$0-depth;
#X obj 198 448 r \$0-Q;
#X obj 181 507 *~;
#X obj 40 482 expr 1 - $f1;
#X obj 83 300 r \$0-center-freq;
#X floatatom 171 254 5 0 0 1 - - #0-mix;
#X obj 105 254 hsl 64 14 0 1 0 0 empty empty mix -2 -8 0 10 -262144
-1 -1 3330 1;
#X obj 208 300 r \$0-lfo-freq;
#X obj 208 362 *~;
#X obj 190 386 +~;
#X obj 23 300 +~ 0;
#X floatatom 171 222 5 0 0 1 - - #0-Q;
#X obj 105 222 hsl 64 14 0 5 0 0 empty empty Q -2 -8 0 10 -262144 -1
-1 1780 1;
#X floatatom 171 191 5 0 0 1 Hz - #0-depth;
#X obj 105 191 hsl 64 14 1 1000 0 0 empty empty depth -2 -8 0 10 -262144
-1 -1 1255 1;
#X floatatom 171 127 5 0 0 1 Hz - #0-center-freq;
#X obj 105 127 hsl 64 14 20 3000 0 0 empty empty center_freq -2 -8
0 10 -262144 -1 -1 619 1;
#X floatatom 171 159 5 0 0 1 Hz - #0-lfo-freq;
#X obj 105 159 hsl 64 14 0 5 0 0 empty empty lfo -2 -8 0 10 -262144
-1 -1 2460 1;
#X obj 40 434 r \$0-mix;
#X msg 61 127 1;
#X msg 60 223 0.1;
#X obj 189 417 snapshot~;
#X msg 61 191 3;
#X msg 61 100 1000;
#X obj 208 338 osc~;
#X obj 290 385 metro 1;
#X obj 290 337 loadbang;
#X msg 290 361 1;
#X msg 61 159 500;
#X connect 1 0 9 0;
#X connect 2 0 17 0;
#X connect 3 0 4 0;
#X connect 4 0 5 0;
#X connect 6 0 31 0;
#X connect 6 0 27 0;
#X connect 6 0 36 0;
#X connect 6 0 30 0;
#X connect 6 0 28 0;
#X connect 7 0 15 1;
#X connect 8 0 1 2;
#X connect 9 0 4 1;
#X connect 10 0 3 1;
#X connect 11 0 16 0;
#X connect 13 0 12 0;
#X connect 14 0 32 0;
#X connect 15 0 16 1;
#X connect 16 0 29 0;
#X connect 17 0 1 0;
#X connect 17 0 3 0;
#X connect 19 0 18 0;
#X connect 21 0 20 0;
#X connect 23 0 22 0;
#X connect 25 0 24 0;
#X connect 26 0 10 0;
#X connect 26 0 9 1;
#X connect 27 0 25 0;
#X connect 28 0 13 0;
#X connect 29 0 1 1;
#X connect 30 0 19 0;
#X connect 31 0 23 0;
#X connect 32 0 15 0;
#X connect 33 0 29 0;
#X connect 34 0 35 0;
#X connect 35 0 33 0;
#X connect 36 0 21 0;
#X coords 0 -1 1 1 125 170 1 100 100;
