#N canvas 0 39 612 701 10;
#X text 17 -27 Wah Wah;
#X obj 134 420 bp~;
#X obj 23 -2 inlet~;
#X obj 22 473 *~;
#X obj 22 500 +~;
#X obj 21 527 outlet~;
#X obj 37 63 loadbang;
#X obj 475 318 r \$0-depth;
#X obj 134 449 *~;
#X obj 40 449 expr 1 - $f1;
#X obj 332 318 r \$0-center-freq;
#X floatatom 174 233 5 0 0 1 - - #0-mix;
#X obj 108 233 hsl 64 14 0 1 0 0 empty empty mix -2 -8 0 10 -262144
-1 -1 3150 1;
#X obj 457 367 *~;
#X obj 439 391 +~;
#X obj 23 316 +~ 0;
#X floatatom 174 168 5 0 0 1 - - #0-Q;
#X obj 108 168 hsl 64 14 0 5 0 0 empty empty Q -2 -8 0 10 -262144 -1
-1 2520 1;
#X floatatom 174 201 5 0 0 1 Hz - #0-depth;
#X obj 108 201 hsl 64 14 1 1000 0 0 empty empty depth -2 -8 0 10 -262144
-1 -1 3147 1;
#X floatatom 174 138 5 0 0 1 Hz - #0-center-freq;
#X obj 108 138 hsl 64 14 20 3000 0 0 empty empty center_freq -2 -8
0 10 -262144 -1 -1 2072 1;
#X obj 40 395 r \$0-mix;
#X obj 438 422 snapshot~;
#X msg 62 111 1000;
#X msg 62 169 500;
#X obj 503 343 loadbang;
#X msg 503 367 1;
#X obj 503 391 metro 1;
#X obj 458 -2 inlet~;
#X msg 61 202 0.5;
#X msg 62 137 2;
#X obj 152 395 r \$0-Q;
#X obj 438 448 s \$0-curr-center-freq;
#X obj 143 369 r \$0-curr-center-freq;
#X obj 229 55 bp~;
#X obj 247 26 r \$0-Q;
#X text 506 -2 center frequency control (range [-1 \, 1]);
#X text 346 294 compute current center frequency;
#X obj 238 -2 r \$0-curr-center-freq;
#X obj 229 78 *~ 5;
#X obj 141 -2 impulse~ 1024;
#X obj 230 100 plotpowspec~ 1024;
#X connect 1 0 8 0;
#X connect 2 0 15 0;
#X connect 3 0 4 0;
#X connect 4 0 5 0;
#X connect 6 0 24 0;
#X connect 6 0 25 0;
#X connect 6 0 31 0;
#X connect 6 0 30 0;
#X connect 7 0 13 1;
#X connect 8 0 4 1;
#X connect 9 0 3 1;
#X connect 10 0 14 0;
#X connect 12 0 11 0;
#X connect 13 0 14 1;
#X connect 14 0 23 0;
#X connect 15 0 1 0;
#X connect 15 0 3 0;
#X connect 17 0 16 0;
#X connect 19 0 18 0;
#X connect 21 0 20 0;
#X connect 22 0 9 0;
#X connect 22 0 8 1;
#X connect 23 0 33 0;
#X connect 24 0 21 0;
#X connect 25 0 19 0;
#X connect 26 0 27 0;
#X connect 27 0 28 0;
#X connect 28 0 23 0;
#X connect 29 0 13 0;
#X connect 30 0 12 0;
#X connect 31 0 17 0;
#X connect 32 0 1 2;
#X connect 34 0 1 1;
#X connect 35 0 40 0;
#X connect 36 0 35 2;
#X connect 39 0 35 1;
#X connect 40 0 42 0;
#X connect 41 0 35 0;
#X coords 0 -1 1 1 330 185 1 100 100;
